<?xml version="1.0" encoding="utf-8"?>
<!-- Generator: Adobe Illustrator 27.0.0, SVG Export Plug-In . SVG Version: 6.00 Build 0)  -->
<svg version="1.1" id="Layer_1" xmlns="http://www.w3.org/2000/svg" xmlns:xlink="http://www.w3.org/1999/xlink" x="0px" y="0px"
	 viewBox="0 0 512 512" style="enable-background:new 0 0 512 512;" xml:space="preserve">
<style type="text/css">
	.st0{fill:#FFFFFF;}
</style>
<g id="XMLID_1_">
	<path id="XMLID_2_" class="st0" d="M325.85,133.7c-9.68-9.68-25.25-9.68-34.92,0L133.7,290.93c-19.36,19.21-50.63,19.21-69.85,0
		c-19.36-19.36-19.36-50.63,0-69.85L217.99,66.94c-19.36-19.36-50.63-19.36-69.85,0L28.93,186.16
		c-38.57,38.57-38.57,101.12,0,139.69s101.12,38.57,139.69,0l157.23-157.23C335.52,159.09,335.52,143.38,325.85,133.7z M378.3,81.39
		c-38.57-38.57-101.12-38.57-139.69,0L81.38,238.47c-9.68,9.68-9.68,25.25,0,34.92c9.68,9.68,25.25,9.68,34.92,0l157.23-157.23
		c19.36-19.36,50.49-19.36,69.85,0c9.68,9.68,25.25,9.68,34.92,0C387.84,106.63,387.84,91.07,378.3,81.39z M430.62,238.47
		c-9.68-9.68-25.25-9.68-34.92,0L238.47,395.7c-19.36,19.36-50.63,19.36-69.85,0c-9.68-9.68-25.25-9.68-34.92,0
		c-9.68,9.68-9.68,25.25,0,34.92c38.57,38.57,101.12,38.57,139.69,0L430.62,273.4C440.29,263.86,440.29,248.15,430.62,238.47z
		 M483.07,186.16c-38.57-38.57-101.12-38.57-139.69,0L186.15,343.38c-9.68,9.68-9.68,25.25,0,34.92c9.68,9.68,25.25,9.68,34.92,0
		L378.3,221.08c19.21-19.36,50.63-19.36,69.85,0c19.36,19.36,19.36,50.63,0,69.85L294.01,445.07c19.36,19.21,50.49,19.21,69.85,0
		l119.22-119.22C521.64,287.28,521.64,224.73,483.07,186.16z"/>
</g>
</svg>
